HIERARCHY
ROOT hip
{
	OFFSET 0.000000 0.000000 0.000000 
	CHANNELS 6 Xposition Yposition Zposition Xrotation Zrotation Yrotation
	JOINT abdomen
	{
		OFFSET 0.000000 3.402643 0.000000 
		CHANNELS 3 Xrotation Zrotation Yrotation
		JOINT chest
		{
			OFFSET 0.000000 8.438565 -0.680529 
			CHANNELS 3 Xrotation Zrotation Yrotation
			JOINT neck
			{
				OFFSET 0.000000 10.207942 -0.272212 
				CHANNELS 3 Xrotation Zrotation Yrotation
				JOINT head
				{
					OFFSET 0.000000 3.130431 0.000000 
					CHANNELS 3 Xrotation Zrotation Yrotation
					End Site
					{
						OFFSET 0.000000 3.130435 0.000000 
					}
				}
			}
			JOINT lCollar
			{
				OFFSET 3.470700 6.669187 -0.816635 
				CHANNELS 3 Yrotation Zrotation Xrotation
				JOINT lShldr
				{
					OFFSET 3.198488 0.000000 0.000000 
					CHANNELS 3 Zrotation Yrotation Xrotation
					JOINT lForeArm
					{
						OFFSET 10.139888 0.000000 0.000000 
						CHANNELS 3 Yrotation Zrotation Xrotation
						JOINT lHand
						{
							OFFSET 8.370511 0.000000 0.000000 
							CHANNELS 3 Zrotation Yrotation Xrotation
							End Site
							{
								OFFSET 4.083176 0.000000 0.000000 
							}
						}
					}
				}
			}
			JOINT rCollar
			{
				OFFSET -3.470700 6.669187 -0.816635 
				CHANNELS 3 Yrotation Zrotation Xrotation
				JOINT rShldr
				{
					OFFSET -3.198488 0.000000 0.000000 
					CHANNELS 3 Zrotation Yrotation Xrotation
					JOINT rForeArm
					{
						OFFSET -10.139888 0.000000 0.000000 
						CHANNELS 3 Yrotation Zrotation Xrotation
						JOINT rHand
						{
							OFFSET -8.370511 0.000000 0.000000 
							CHANNELS 3 Zrotation Yrotation Xrotation
							End Site
							{
								OFFSET -4.083176 0.000000 0.000000 
							}
						}
					}
				}
			}
		}
	}
	JOINT lThigh
	{
		OFFSET 5.308129 -1.633274 1.361059 
		CHANNELS 3 Xrotation Zrotation Yrotation
		JOINT lShin
		{
			OFFSET -2.041588 -20.007561 0.000000 
			CHANNELS 3 Xrotation Zrotation Yrotation
			JOINT lFoot
			{
				OFFSET 0.000000 -19.190928 -1.224953 
				CHANNELS 3 Xrotation Yrotation Zrotation
				End Site
				{
					OFFSET 0.000000 -2.449906 4.627600 
				}
			}
		}
	}
	JOINT rThigh
	{
		OFFSET -5.308129 -1.633274 1.361059 
		CHANNELS 3 Xrotation Zrotation Yrotation
		JOINT rShin
		{
			OFFSET 2.041588 -20.007561 0.000000 
			CHANNELS 3 Xrotation Zrotation Yrotation
			JOINT rFoot
			{
				OFFSET 0.000000 -19.190928 -1.224953 
				CHANNELS 3 Xrotation Yrotation Zrotation
				End Site
				{
					OFFSET 0.000000 -2.449906 4.627600 
				}
			}
		}
	}
}
MOTION
Frames: 12
Frame Time: 0.041667
0.000000 53.498627 0.305648 0.000000 0.000000 0.000000 0.000000 0.000000 0.000000 -5.175648 -2.480400 0.196170 0.000000 0.000000 0.000000 0.000000 0.000000 0.000000 2.822945 -7.101828 -0.094887 -66.960083 10.696887 16.534462 -21.354279 -2.527532 0.143427 5.969491 -0.173112 0.175733 7.854506 -30.000000 10.694261 -15.283331 7.221420 -61.855095 23.336979 -3.892672 -16.147259 -5.827211 -6.644628 0.714062 -7.559102 4.017835 0.126619 15.930134 -3.336789 -0.816053 -8.648877 1.041934 -0.888112 -7.541069 -4.335666 0.100348 15.850156 3.319505 0.623610 -8.670751 -1.558202 0.936774 
0.000000 53.498718 0.305648 0.000000 0.000000 0.000000 0.000000 0.000000 0.000000 -5.405861 -2.132957 0.204501 0.000000 0.000000 0.000000 0.000000 0.000000 0.000000 2.236393 -7.555357 -0.208094 -67.721718 10.778363 16.397621 -21.137777 -3.659457 0.142332 5.969491 -0.173111 0.175731 6.605235 -30.000000 10.268524 -19.435774 9.412048 -60.979790 28.995588 -8.153320 -15.384860 -5.653086 -12.086100 1.417033 -7.590332 4.021317 0.127889 15.990005 -3.335071 -0.829577 -8.678817 1.038318 -0.888126 -7.553596 -4.333396 0.099697 15.879966 3.320085 0.625672 -8.689248 -1.565768 0.926152 
0.000000 53.498810 0.305648 0.000000 0.000000 0.000000 0.000000 0.000000 0.000000 -5.634183 -1.846634 0.212094 0.000000 0.000000 0.000000 0.000000 0.000000 0.000000 1.623744 -8.005759 -0.323169 -68.364227 10.841942 16.281139 -20.908846 -4.616312 0.139964 5.969493 -0.173111 0.175730 5.419388 -30.000000 9.832511 -23.087185 11.322140 -60.201050 35.008759 -11.704025 -14.552032 -5.468979 -9.588296 2.184160 -7.547146 4.019575 0.126706 15.899512 -3.340155 -0.814458 -8.638988 1.042372 -0.878402 -7.530472 -4.334557 0.100768 15.830447 3.318288 0.622137 -8.660609 -1.559426 0.936809 
0.000000 53.498909 0.305648 0.000000 0.000000 0.000000 0.000000 0.000000 0.000000 -5.827470 -1.770500 0.216613 0.000000 0.000000 0.000000 0.000000 0.000000 0.000000 1.017950 -8.388240 -0.428402 -68.586098 10.846600 16.237400 -20.674500 -4.953330 0.134301 5.969494 -0.173110 0.175728 4.567200 -30.000000 9.424100 -24.846001 12.190000 -59.796799 41.255901 -12.780200 -13.626200 -5.286163 -1.000912 2.931037 -7.579844 4.020308 0.127456 15.970176 -3.334462 -0.828173 -8.668835 1.039541 -0.888120 -7.540812 -4.336113 0.100378 15.858101 3.329446 0.624880 -8.671209 -1.555633 0.936975 
0.000000 53.499001 0.305648 0.000000 0.000000 0.000000 0.000000 0.000000 0.000000 -5.962902 -2.003254 0.216522 0.000000 0.000000 0.000000 0.000000 0.000000 0.000000 0.447076 -8.651439 -0.514374 -68.181892 10.765501 16.302177 -20.442883 -4.367002 0.124019 5.969495 -0.173110 0.175727 4.245867 -29.845789 9.078021 -23.765375 11.501060 -59.961372 46.781998 -10.346832 -12.728861 -5.115909 9.608676 3.573263 -7.515226 4.017333 0.125350 15.860250 -3.336972 -0.811416 -8.628671 1.046369 -0.887950 -7.538427 -4.340274 0.099912 15.846990 3.334975 0.624874 -8.671341 -1.554891 0.927268 
0.000000 53.499092 0.305648 0.000000 0.000000 0.000000 0.000000 0.000000 0.000000 -6.058966 -2.442118 0.213494 0.000000 0.000000 0.000000 0.000000 0.000000 0.000000 -0.080350 -8.797764 -0.580817 -67.330482 10.628532 16.444759 -20.226631 -3.118837 0.110584 5.969495 -0.173109 0.175726 4.360435 -29.651041 8.816403 -20.677324 9.729217 -60.554668 47.294201 -6.287160 -12.557800 -4.969490 18.173100 4.026433 -7.537868 4.016270 0.126409 15.880302 -3.336514 -0.812692 -8.628830 1.045043 -0.888051 -7.548607 -4.342108 0.099541 15.866806 3.335672 0.626287 -8.679822 -1.562971 0.916738 
0.000000 53.499187 0.305648 0.000000 0.000000 0.000000 0.000000 0.000000 0.000000 -6.144474 -2.933943 0.210008 0.000000 0.000000 0.000000 0.000000 0.000000 0.000000 -0.560688 -8.843065 -0.629753 -66.306839 10.479764 16.617813 -20.039511 -1.611603 0.096159 5.969494 -0.173109 0.175724 4.742913 -29.488380 8.658229 -16.858589 7.595486 -61.352962 39.558979 -2.846162 -13.657420 -4.855869 21.173100 4.206143 -7.579527 4.020905 0.127420 15.970063 -3.335028 -0.828240 -8.668835 1.039541 -0.888120 -7.538260 -4.340563 0.099931 15.847128 3.334310 0.624794 -8.671341 -1.554890 0.927268 
0.000000 53.499279 0.305648 0.000000 0.000000 0.000000 0.000000 0.000000 0.000000 -6.248238 -3.325580 0.208539 0.000000 0.000000 0.000000 0.000000 0.000000 0.000000 -0.990295 -8.803197 -0.663203 -65.385925 10.363264 16.774006 -19.895281 -0.248065 0.082910 5.969495 -0.173108 0.175723 5.225309 -29.430428 8.622475 -13.585903 5.820879 -62.132549 27.917828 -0.797511 -15.382331 -4.774332 17.891592 4.065722 -7.525555 4.018668 0.125766 15.850601 -3.335371 -0.810560 -8.608940 1.046827 -0.888093 -7.548720 -4.341911 0.099528 15.867064 3.334403 0.626136 -8.679822 -1.562973 0.916737 
0.000000 53.499371 0.305648 0.000000 0.000000 0.000000 0.000000 0.000000 0.000000 -6.399070 -3.463880 0.211564 0.000000 0.000000 0.000000 0.000000 0.000000 0.000000 -1.365530 -8.694010 -0.683189 -64.842697 10.323100 16.865999 -19.807699 0.569012 0.073000 5.969496 -0.173108 0.175722 5.639630 -29.549801 8.728120 -12.136000 5.126410 -62.669701 18.606001 -0.547058 -16.789700 -4.721832 10.598413 3.709415 -7.535957 4.019866 0.126188 15.880371 -3.336178 -0.812653 -8.628830 1.045043 -0.888051 -7.483238 -4.338469 0.102273 15.767605 3.332751 0.619287 -8.640657 -1.559999 0.927262 
0.000000 53.499462 0.305648 0.000000 0.000000 0.000000 0.000000 0.000000 0.000000 -6.617071 -3.249569 0.220647 0.000000 0.000000 0.000000 0.000000 0.000000 0.000000 -1.682752 -8.531354 -0.691731 -64.871376 10.387590 16.860281 -19.784191 0.552387 0.068003 5.969497 -0.173107 0.175720 5.855781 -29.881824 8.977901 -13.392333 5.997663 -62.803127 16.379274 -2.284198 -17.158264 -4.695447 2.173111 3.279199 -7.567648 4.022512 0.127515 15.939633 -3.337502 -0.826540 -8.658774 1.041428 -0.888063 -7.518629 -4.335611 0.100592 15.800681 3.317464 0.619482 -8.640321 -1.561875 0.936881 
0.000000 53.499550 0.305648 0.000000 0.000000 0.000000 0.000000 0.000000 0.000000 -6.887500 -2.798871 0.233701 0.000000 0.000000 0.000000 0.000000 0.000000 0.000000 -1.938317 -8.331080 -0.690851 -65.343216 10.522053 16.778618 -19.806835 -0.123075 0.067142 5.969498 -0.173107 0.175719 5.895262 -30.000000 9.309578 -16.665239 7.978505 -62.621250 20.075459 -5.332518 -16.653046 -4.692377 -4.663684 2.917050 -7.569182 4.019621 0.127004 15.950467 -3.333287 -0.826701 -8.658854 1.040768 -0.888114 -7.529097 -4.336951 0.100187 15.818789 3.326495 0.621879 -8.650924 -1.558090 0.937045 
0.000000 53.499641 0.305648 0.000000 0.000000 0.000000 0.000000 0.000000 0.000000 -7.186905 -2.281881 0.247729 0.000000 0.000000 0.000000 0.000000 0.000000 0.000000 -2.128585 -8.109040 -0.682571 -66.048721 10.676058 16.656597 -19.851377 -1.166985 0.069050 5.969497 -0.173106 0.175717 5.817470 -30.000000 9.644670 -20.871769 10.377374 -62.274933 27.052887 -8.799149 -15.660637 -4.709944 -7.826900 2.764948 -7.537669 4.016647 0.126386 15.880443 -3.335831 -0.812611 -8.628830 1.045041 -0.888051 -7.548374 -4.342513 0.099568 15.867320 3.333160 0.625988 -8.679822 -1.562971 0.916738 
